<svg fill="#000000" xmlns="http://www.w3.org/2000/svg"  viewBox="0 0 64 64" width="64px" height="64px"><path d="M 32 1 A 31 31 0 1 0 63 32 A 31.0353 31.0353 0 0 0 32 1 z M 30.835938 4.0234375 A 28 28 0 0 1 60 32 A 28.0314 28.0314 0 0 1 32 60 A 28 28 0 0 1 30.835938 4.0234375 z M 32 6 A 26 26 0 1 0 58 32 A 26.03 26.03 0 0 0 32 6 z M 32.029297 9 A 1 1 0 0 1 33 10 L 33 12 A 1 1 0 0 1 31 12 L 31 10 A 1 1 0 0 1 32.029297 9 z M 47.566406 15.435547 A 1 1 0 0 1 48.263672 17.150391 L 46.849609 18.564453 A 1 1 0 0 1 45.435547 17.150391 L 46.849609 15.736328 A 1 1 0 0 1 47.566406 15.435547 z M 16.410156 15.453125 A 1 1 0 0 1 17.150391 15.736328 L 18.564453 17.150391 A 0.9994 0.9994 0 0 1 18.564453 18.564453 A 0.9995 0.9995 0 0 1 17.150391 18.564453 L 15.736328 17.150391 A 1 1 0 0 1 16.410156 15.453125 z M 32.029297 16 A 1 1 0 0 1 33 17 L 33 29.183594 A 2.995 2.995 0 0 1 35 32 A 2.9622 2.9622 0 0 1 34.699219 33.285156 L 39.707031 38.292969 A 0.9994 0.9994 0 0 1 39.707031 39.707031 A 0.9995 0.9995 0 0 1 38.292969 39.707031 L 33.287109 34.701172 A 2.99 2.99 0 1 1 31 29.183594 L 31 17 A 1 1 0 0 1 32.029297 16 z M 9.9589844 31 A 1 1 0 0 1 10 31 L 12 31 A 1 1 0 0 1 12 33 L 10 33 A 1 1 0 0 1 9.9589844 31 z M 31.970703 31 A 1 1 0 0 0 32 33 A 0.959 0.959 0 0 0 32.693359 32.710938 A 0.9746 0.9746 0 0 0 33 32 A 1 1 0 0 0 31.970703 31 z M 51.958984 31 A 1 1 0 0 1 52 31 L 54 31 A 1 1 0 0 1 54 33 L 52 33 A 1 1 0 0 1 51.958984 31 z M 17.876953 45.154297 A 1 1 0 0 1 18.564453 46.849609 L 17.150391 48.263672 A 1 1 0 1 1 15.736328 46.849609 L 17.150391 45.435547 A 1 1 0 0 1 17.876953 45.154297 z M 46.115234 45.154297 A 1 1 0 0 1 46.849609 45.435547 L 48.263672 46.849609 A 1 1 0 0 1 48.263672 48.263672 A 1 1 0 0 1 46.849609 48.263672 L 45.435547 46.849609 A 1 1 0 0 1 46.115234 45.154297 z M 32.029297 51 A 1 1 0 0 1 33 52 L 33 54 A 1 1 0 0 1 31 54 L 31 52 A 1 1 0 0 1 32.029297 51 z"/></svg>